<svg width="1218" height="1218" viewBox="0 0 1218 1218" fill="none" xmlns="http://www.w3.org/2000/svg">
<path d="M178.372 1039.63C93.2017 954.458 35.2001 845.945 11.7017 727.81C-11.7967 609.676 0.263574 487.226 46.3573 375.946C92.4511 264.666 170.508 169.553 270.658 102.635C370.807 35.7174 488.551 0.000219674 609 0.00021752C729.449 0.000215367 847.193 35.7174 947.342 102.635C1047.49 169.553 1125.55 264.666 1171.64 375.946C1217.74 487.226 1229.8 609.676 1206.3 727.81C1182.8 845.945 1124.8 954.458 1039.63 1039.63L609 609L178.372 1039.63Z" fill="url(#paint0_linear_16_5)"/>
<path d="M1039.63 1039.63C954.458 1124.8 845.944 1182.8 727.81 1206.3C609.676 1229.8 487.226 1217.74 375.946 1171.64C264.666 1125.55 169.553 1047.49 102.635 947.343C35.7172 847.193 7.4183e-06 729.449 0 609C-7.4183e-06 488.551 35.7172 370.808 102.635 270.658C169.553 170.508 264.666 92.4514 375.946 46.3576C487.226 0.263854 609.676 -11.7964 727.81 11.702C845.944 35.2004 954.458 93.202 1039.63 178.372L832.194 385.806C788.05 341.663 731.808 311.601 670.579 299.421C609.35 287.242 545.885 293.493 488.208 317.383C430.532 341.274 381.235 381.731 346.552 433.638C311.868 485.545 293.356 546.572 293.356 609C293.356 671.429 311.868 732.455 346.552 784.363C381.235 836.27 430.532 876.727 488.208 900.617C545.885 924.507 609.35 930.758 670.579 918.579C731.808 906.4 788.05 876.338 832.194 832.194L1039.63 1039.63Z" fill="url(#paint1_linear_16_5)"/>
<defs>
<linearGradient id="paint0_linear_16_5" x1="609" y1="0.00021752" x2="609" y2="1218" gradientUnits="userSpaceOnUse">
<stop stop-color="#C7460B"/>
<stop offset="1" stop-color="#D4AA48"/>
</linearGradient>
<linearGradient id="paint1_linear_16_5" x1="609" y1="0.000244141" x2="609" y2="1218" gradientUnits="userSpaceOnUse">
<stop stop-color="#5B60EE"/>
<stop offset="1" stop-color="#343788"/>
</linearGradient>
</defs>
</svg>
